<svg xmlns="http://www.w3.org/2000/svg" width="16" height="16" viewBox="0 0 16 16" fill="none">
<path d="M13.9899 8.324C13.9275 9.48143 13.5311 10.596 12.8487 11.5329C12.1662 12.4699 11.2271 13.1891 10.1446 13.6037C9.06217 14.0183 7.88282 14.1104 6.74912 13.869C5.61542 13.6276 4.5759 13.063 3.75624 12.2434C2.93658 11.4239 2.37186 10.3844 2.13035 9.25074C1.88883 8.11706 1.98087 6.9377 2.39532 5.85521C2.80977 4.77272 3.52891 3.83346 4.46579 3.15096C5.40266 2.46845 6.51718 2.07194 7.6746 2.00933C7.9446 1.99467 8.08594 2.316 7.9426 2.54467C7.4632 3.3117 7.25792 4.21858 7.36027 5.1173C7.46262 6.01602 7.86655 6.85352 8.50615 7.49312C9.14575 8.13272 9.98325 8.53665 10.882 8.639C11.7807 8.74135 12.6876 8.53607 13.4546 8.05667C13.6839 7.91333 14.0046 8.054 13.9899 8.324Z" stroke="#0A0A0A" stroke-width="1.33333" stroke-linecap="round" stroke-linejoin="round"/>
</svg>